<svg viewBox="0 0 15 15" fill="none" xmlns="http://www.w3.org/2000/svg">
<path d="M12.6072 5.21099H12.1429C11.8866 5.21099 11.6786 5.4089 11.6786 5.65318V6.97962H10.2858V6.09524C10.2858 5.60678 9.87012 5.21086 9.35723 5.21086L7.50014 5.21096V4.32657H9.35723C9.61361 4.32657 9.82154 4.12867 9.82154 3.88438V3.44219C9.82154 3.19802 9.61373 3 9.35723 3L4.25015 3.0001C3.99377 3.0001 3.78584 3.19801 3.78584 3.44229V3.88449C3.78584 4.12866 3.99365 4.32668 4.25015 4.32668H6.10724V5.21106L4.25015 5.21096C3.73726 5.21096 3.32154 5.60688 3.32154 6.09534V7.86398H2.39292V6.53753C2.39292 6.29336 2.18512 6.09534 1.92861 6.09534H1.46431C1.20792 6.09534 1 6.29325 1 6.53753V10.517C1 10.7612 1.20781 10.9592 1.46431 10.9592H1.92861C2.185 10.9592 2.39292 10.7613 2.39292 10.517V9.19058H3.32154V10.3367C3.32154 10.5917 3.43715 10.8343 3.6386 11.0022L4.91612 12.0669C5.0856 12.2079 5.30257 12.2857 5.52745 12.2857C6.5314 12.2858 9.3572 12.2857 9.3572 12.2857C9.87009 12.2857 10.2858 11.8897 10.2858 11.4013V10.0748H11.6786V11.4013C11.6786 11.6455 11.8864 11.8435 12.1429 11.8435H12.6072C13.3765 11.8435 14 11.2497 14 10.517V6.53755C14 5.80492 13.3765 5.2111 12.6072 5.2111L12.6072 5.21099ZM8.35079 8.99361L7.42218 10.32C7.2799 10.5233 7.03591 10.5168 7.03591 10.5168V9.19038H6.1073C5.93609 9.19038 5.77868 9.10063 5.69785 8.9568C5.61721 8.81297 5.62606 8.6386 5.72095 8.503L6.64956 7.17656C6.79174 6.97299 7.03591 6.97957 7.03591 6.97957V8.30602H7.96453C8.13574 8.30602 8.29314 8.39577 8.37398 8.5396C8.45462 8.68343 8.44579 8.85801 8.35079 8.99361Z" fill="#17B9EC"/>
</svg>
