<svg width="16" height="16" viewBox="0 0 16 16" fill="none" xmlns="http://www.w3.org/2000/svg">
<g clip-path="url(#clip0_45_2142)">
<path d="M10.9601 2.06667C10.3851 2.0674 9.8182 2.20214 9.30439 2.4602C8.79058 2.71827 8.34399 3.09255 8.00008 3.55334C7.53354 2.92874 6.8817 2.4674 6.13751 2.23511C5.39332 2.00282 4.59478 2.01145 3.85578 2.25975C3.11678 2.50805 2.47505 2.98336 2.02211 3.61789C1.56917 4.25241 1.32814 5.01376 1.33341 5.79334C1.33213 6.54256 1.44912 7.28728 1.68008 8.00001C2.73341 11.3333 5.98008 13.3267 7.58675 13.8733C7.8565 13.9533 8.14366 13.9533 8.41341 13.8733C10.0201 13.3267 13.2667 11.3333 14.3201 8.00001C14.551 7.28728 14.668 6.54256 14.6667 5.79334C14.6681 5.30524 14.5734 4.82164 14.3878 4.37017C14.2023 3.9187 13.9296 3.5082 13.5854 3.16213C13.2412 2.81606 12.8322 2.54119 12.3817 2.35323C11.9313 2.16527 11.4482 2.0679 10.9601 2.06667Z"/>
</g>
<defs>
<clipPath id="clip0_45_2142">
<rect width="16" height="16" fill="white"/>
</clipPath>
</defs>
</svg>
