<svg xmlns="http://www.w3.org/2000/svg" xmlns:xlink="http://www.w3.org/1999/xlink" width="510.6" height="263.027" viewBox="0 0 510.6 263.027"><defs><radialGradient id="a" cx="0.5" cy="0.5" r="0.5" gradientUnits="objectBoundingBox"><stop offset="0" stop-color="#fff"/><stop offset="1" stop-color="#f3f9ff"/></radialGradient><linearGradient id="b" x1="0.856" y1="0.146" x2="0.133" y2="0.824" gradientUnits="objectBoundingBox"><stop offset="0" stop-color="#aad2ff"/><stop offset="1" stop-color="#a5cfff"/></linearGradient><radialGradient id="c" cx="0.5" cy="0.5" r="0.5" gradientUnits="objectBoundingBox"><stop offset="0" stop-color="#263953"/><stop offset="1" stop-color="#489eff" stop-opacity="0.502"/></radialGradient><radialGradient id="d" gradientTransform="matrix(-1, 0, 0, 1, 1, 0)" xlink:href="#c"/></defs><g transform="translate(-869.174 -416.236)"><g transform="translate(-478.181 344.787) rotate(-8)" opacity="0.6"><path d="M9.569,0H187.384a9.569,9.569,0,0,1,9.569,9.569v30.3a9.569,9.569,0,0,1-9.569,9.569H9.569A9.569,9.569,0,0,1,0,39.869V9.569A9.569,9.569,0,0,1,9.569,0Z" transform="translate(1331 448)" fill="#fff"/><path d="M9.569,1A8.578,8.578,0,0,0,1,9.569v30.3a8.578,8.578,0,0,0,8.569,8.569H187.384a8.578,8.578,0,0,0,8.569-8.569V9.569A8.578,8.578,0,0,0,187.384,1H9.569m0-1H187.384a9.569,9.569,0,0,1,9.569,9.569v30.3a9.569,9.569,0,0,1-9.569,9.569H9.569A9.569,9.569,0,0,1,0,39.869V9.569A9.569,9.569,0,0,1,9.569,0Z" transform="translate(1331 448)" fill="#98c0ed"/><rect width="21" height="21" rx="7" transform="translate(1501.976 471.719)" fill="#98c0ed"/><g transform="translate(1507.682 477.168)"><path d="M.98,0a.98.98,0,0,1,.98.98s-.3,2.64-.3,5.279.3,5.279.3,5.279a.98.98,0,1,1-1.961,0S.3,8.9.3,6.26,0,.98,0,.98A.98.98,0,0,1,.98,0Z" transform="translate(8.853 0) rotate(45)" fill="#fff"/><path d="M.98,0a.98.98,0,0,1,.98.98s-.3,2.64-.3,5.279.3,5.279.3,5.279a.98.98,0,1,1-1.961,0S.3,8.9.3,6.26,0,.98,0,.98A.98.98,0,0,1,.98,0Z" transform="translate(0 1.387) rotate(-45)" fill="#fff"/></g><circle cx="13" cy="13" r="13" transform="translate(1344.976 459.719)" fill="#e7eaf5"/><g transform="translate(1376.451 464.745)"><rect width="34" height="8" rx="4" transform="translate(-0.474 -0.025)" fill="#e7eaf5"/><rect width="75" height="3" rx="1.5" transform="translate(-0.474 12.975)" fill="#e7eaf5"/><rect width="20" height="8" rx="4" transform="translate(38.526 -0.025)" fill="#e7eaf5"/></g></g><g transform="translate(-174.519 180.426)" opacity="0.5"><path d="M9.569,0H187.384a9.569,9.569,0,0,1,9.569,9.569v30.3a9.569,9.569,0,0,1-9.569,9.569H9.569A9.569,9.569,0,0,1,0,39.869V9.569A9.569,9.569,0,0,1,9.569,0Z" transform="translate(1331 448)" fill="#fff"/><path d="M9.569,1A8.578,8.578,0,0,0,1,9.569v30.3a8.578,8.578,0,0,0,8.569,8.569H187.384a8.578,8.578,0,0,0,8.569-8.569V9.569A8.578,8.578,0,0,0,187.384,1H9.569m0-1H187.384a9.569,9.569,0,0,1,9.569,9.569v30.3a9.569,9.569,0,0,1-9.569,9.569H9.569A9.569,9.569,0,0,1,0,39.869V9.569A9.569,9.569,0,0,1,9.569,0Z" transform="translate(1331 448)" fill="#98c0ed"/><rect width="21" height="21" rx="7" transform="translate(1501.976 471.719)" fill="#98c0ed"/><g transform="translate(1507.682 477.168)"><path d="M.98,0a.98.98,0,0,1,.98.98s-.3,2.64-.3,5.279.3,5.279.3,5.279a.98.98,0,1,1-1.961,0S.3,8.9.3,6.26,0,.98,0,.98A.98.98,0,0,1,.98,0Z" transform="translate(8.853 0) rotate(45)" fill="#fff"/><path d="M.98,0a.98.98,0,0,1,.98.98s-.3,2.64-.3,5.279.3,5.279.3,5.279a.98.98,0,1,1-1.961,0S.3,8.9.3,6.26,0,.98,0,.98A.98.98,0,0,1,.98,0Z" transform="translate(0 1.387) rotate(-45)" fill="#fff"/></g><circle cx="13" cy="13" r="13" transform="translate(1344.976 459.719)" fill="#e7eaf5"/><g transform="translate(1376.451 464.745)"><rect width="34" height="8" rx="4" transform="translate(-0.474 -0.025)" fill="#e7eaf5"/><rect width="75" height="3" rx="1.5" transform="translate(-0.474 12.975)" fill="#e7eaf5"/><rect width="20" height="8" rx="4" transform="translate(38.526 -0.025)" fill="#e7eaf5"/></g></g><g transform="translate(0 -1)"><path d="M-10858.956-16397.387h-271.533v-1.5h271.533Z" transform="translate(12043.105 17077)" fill="#263953"/><path d="M-10984.666-16397.387h-145.824v-1.5h145.824Z" transform="translate(12346.507 17077)" fill="#263953"/><path d="M-11111.81-16397.387h-18.681v-1.5h18.681Z" transform="translate(12016.232 17077)" fill="#263953"/><path d="M-11111.81-16397.387h-18.681v-1.5h18.681Z" transform="translate(12321.232 17077)" fill="#263953"/><path d="M-11120.24-16397.387h-10.25v-1.5h10.25Z" transform="translate(11999.664 17077)" fill="#263953"/><path d="M-11120.24-16397.387h-10.25v-1.5h10.25Z" transform="translate(12500.014 17077)" fill="#263953"/></g><g transform="translate(-469.709)"><g transform="translate(0 -339.652)"><path d="M130.456,0c72.049,0,130.456,58.068,130.456,129.7S202.505,259.4,130.456,259.4,0,201.328,0,129.7,58.407,0,130.456,0Z" transform="translate(1463.664 755.889)" opacity="0.8" fill="url(#a)"/><path d="M123.562,18.312C81.3,18.312,52.3,37.1,33.051,68.9,23.633,84.454,16.312,101.755,16.312,122.3c0,63.381,46.535,113.029,107.25,113.029s107.25-49.648,107.25-113.029c0-20.114-6.592-37.249-16.119-53.393-18.623-31.561-48.418-50.59-91.131-50.59m0-10.312C193.58,8,241.124,52.278,241.124,122.3S193.58,249.073,123.562,249.073,6,192.313,6,122.3,53.545,8,123.562,8Z" transform="translate(1475.728 756.77)" fill="#e1ecf9"/><path d="M12284.193,17338.875l-59.115-37.854a130.451,130.451,0,0,1-93.621,39.377c-72.05,0-130.455-58.07-130.455-129.7s58.405-129.693,130.455-129.693,130.456,58.066,130.456,129.693a128.545,128.545,0,0,1-19.96,68.98l59.6,29.137c6.555,3.783,9.522,14.564,4.77,22.795a18.239,18.239,0,0,1-15.5,8.922A13.242,13.242,0,0,1,12284.193,17338.875Zm-263.1-128.18c0,60.439,49.5,109.6,110.36,109.6s110.36-49.164,110.36-109.6-49.509-109.6-110.36-109.6S12021.1,17150.262,12021.1,17210.7Z" transform="translate(-10536.334 -16323.113)" fill="url(#b)"/><path d="M12290.823,17342.029a14.748,14.748,0,0,1-7.38-1.855l-.059-.035-58.092-37.2a132.317,132.317,0,0,1-203.252-18.883,130.686,130.686,0,0,1,16.112-166.133,132.321,132.321,0,0,1,202.72,19.416,130.476,130.476,0,0,1,3.233,141.719l58.149,28.43.045.025a16.389,16.389,0,0,1,7.337,10.691,20.048,20.048,0,0,1,.352,7.092,18.852,18.852,0,0,1-2.37,7.061,19.247,19.247,0,0,1-7.419,7.2A19.54,19.54,0,0,1,12290.823,17342.029Zm-5.852-4.437a11.772,11.772,0,0,0,5.852,1.438,16.755,16.755,0,0,0,7.931-2.1,16.239,16.239,0,0,0,6.268-6.074,15.9,15.9,0,0,0,1.993-5.943,17.067,17.067,0,0,0-.3-6.035,15.771,15.771,0,0,0-2.229-5.229,11.463,11.463,0,0,0-3.642-3.514l-61.054-29.848.9-1.416a127.449,127.449,0,0,0-2.294-139.848,128.936,128.936,0,0,0-80.943-53.918,130.947,130.947,0,0,0-51.983,0,128.837,128.837,0,0,0-92.831,75.693,127.006,127.006,0,0,0-7.513,24.059,128.746,128.746,0,0,0,0,51.674,127.138,127.138,0,0,0,19.4,45.838,128.949,128.949,0,0,0,80.943,53.922,130.925,130.925,0,0,0,52.476-.1,129.026,129.026,0,0,0,66.064-36.219l.854-.873,1.028.658Zm-153.515-15.793c-61.68,0-111.86-49.842-111.86-111.1s50.181-111.1,111.86-111.1,111.86,49.838,111.86,111.1S12193.137,17321.8,12131.457,17321.8Zm0-219.2c-60.025,0-108.86,48.492-108.86,108.1s48.835,108.1,108.86,108.1,108.86-48.494,108.86-108.1S12191.482,17102.6,12131.457,17102.6Z" transform="translate(-10536.334 -16323.113)" fill="#98c0ed"/><path d="M-7167.553-23338.08a8.7,8.7,0,0,1-5.224-2.516c-1.363-1.822-.745-5.971,1.377-7.143.679-.373,16.831-9.625,33.44-9.625s32.671,9.258,33.346,9.631c2.118,1.18,2.725,5.328,1.354,7.148s-4.732,3.061-6.85,1.883a103.867,103.867,0,0,0-27.85-4.422,95.506,95.506,0,0,0-27.13,4.422A5.116,5.116,0,0,1-7167.553-23338.08Z" transform="translate(8733.134 24292.633)" fill="#a5cfff"/><path d="M.757,15.969A4.57,4.57,0,0,1,2.134,9.656C2.813,9.222,18.932,0,35.542,0c10.806,0,21.375,4.561,27.63,7.871C53.657,5.226,39.8,1.876,33.295,2.739,23.284,4.068,17.4,7.423.958,16.257Q.853,16.118.757,15.969Z" transform="translate(1559.633 935.259)" fill="#263953" opacity="0.1"/><path d="M-7107-23374.729s-.946,6.43,3.5,10.664,7.188,6.363,14.634,6.895,12.836-4.309,15.9-7.375,6.475-11.285,6.475-11.285l-23.286,5.785Z" transform="translate(8727.628 24255.922)" fill="rgba(40,110,190,0.1)"/><path d="M-7066.575-23374.729s.946,6.43-3.5,10.664-7.188,6.363-14.633,6.895-12.836-4.309-15.905-7.375-6.475-11.285-6.475-11.285l23.287,5.785Z" transform="translate(8634.559 24255.922)" fill="rgba(40,110,190,0.2)"/><g transform="translate(1524.22 845.051)"><path d="M21.353-.307c12.577,0,20.652,7.214,24.7,21.573s-8.128,29.4-20.7,29.4S-2.11,35.722-2.11,23.146,8.776-.307,21.353-.307Z" transform="translate(2.11 0.307)" fill="#fff"/><path d="M21.353.607a21.423,21.423,0,0,0-8.607,1.82A23.687,23.687,0,0,0,.624,14.541a21.4,21.4,0,0,0-1.821,8.6c0,5.672,3.27,12.338,8.748,17.831s12.134,8.775,17.8,8.775c5.689,0,11.554-3.262,15.689-8.725a24.455,24.455,0,0,0,4.336-9.173,20.61,20.61,0,0,0-.2-10.339C41.208,7.446,33.415.607,21.353.607m0-.913c12.577,0,20.652,7.214,24.7,21.573s-8.128,29.4-20.7,29.4S-2.11,35.722-2.11,23.146,8.776-.307,21.353-.307Z" transform="translate(2.11 0.307)" fill="#e9f0f9"/><ellipse cx="14.037" cy="14.037" rx="14.037" ry="14.037" transform="translate(11.068 11.558)" fill="url(#c)"/><ellipse cx="9.024" cy="9.024" rx="9.024" ry="9.024" transform="translate(15.078 15.568)" fill="#263953"/><ellipse cx="3.008" cy="3.008" rx="3.008" ry="3.008" transform="translate(25.105 27.601)" fill="#fff"/><ellipse cx="2.005" cy="2.005" rx="2.005" ry="2.005" transform="translate(17.084 15.568)" fill="#fff" opacity="0.7"/></g><g transform="translate(1618.188 845.051)"><path d="M23.385-.307c-12.577,0-20.652,7.214-24.7,21.573s8.128,29.4,20.7,29.4,27.462-14.944,27.462-27.52S35.962-.307,23.385-.307Z" transform="translate(2.11 0.307)" fill="#fff"/><path d="M23.385.607C11.323.607,3.53,7.446-.439,21.514a20.609,20.609,0,0,0-.2,10.339A24.455,24.455,0,0,0,3.7,41.027c4.135,5.464,10,8.725,15.689,8.725,5.666,0,12.321-3.281,17.8-8.775s8.748-12.159,8.748-17.831a21.4,21.4,0,0,0-1.821-8.6A23.687,23.687,0,0,0,31.992,2.427,21.423,21.423,0,0,0,23.385.607m0-.913c12.577,0,23.463,10.876,23.463,23.453s-14.886,27.52-27.462,27.52-24.756-15.04-20.7-29.4S10.809-.307,23.385-.307Z" transform="translate(2.11 0.307)" fill="#e9f0f9"/><ellipse cx="14.037" cy="14.037" rx="14.037" ry="14.037" transform="translate(9.816 11.558)" fill="url(#d)"/><ellipse cx="9.024" cy="9.024" rx="9.024" ry="9.024" transform="translate(15.832 15.568)" fill="#263953"/><ellipse cx="3.008" cy="3.008" rx="3.008" ry="3.008" transform="translate(17.838 27.601)" fill="#fff"/><ellipse cx="2.005" cy="2.005" rx="2.005" ry="2.005" transform="translate(27.864 15.568)" fill="#fff" opacity="0.7"/></g><path d="M22.414,2.668C11.688.938,1.5,8.664,0,9.859A22.5,22.5,0,0,1,18.673,0c11.1,0,18.382,5.445,22.233,16.293l0,.016S34.023,4.547,22.414,2.668Z" transform="translate(1529.187 845.965)" fill="rgba(40,110,190,0.1)"/><path d="M22.414,13.641C11.689,15.372,1.5,7.647,0,6.451A22.506,22.506,0,0,0,18.673,16.31c11.1,0,18.382-5.445,22.234-16.293l0-.018S34.023,11.764,22.414,13.641Z" transform="translate(1662.179 862.275) rotate(180)" fill="rgba(40,110,190,0.1)"/><g transform="translate(1544.949 887.67)"><path d="M5.529-10.951c1.178,0,.842,2.534,2.452,6.019C9.1-2.513,11.058.794,11.058,2.146A5.529,5.529,0,0,1,0,2.146c0-1.4,1.3-3.675,2.646-6.555C4.047-7.413,4.351-10.951,5.529-10.951Z" transform="translate(0 10.951)" fill="#489eff"/><ellipse cx="1.456" cy="0.873" rx="1.456" ry="0.873" transform="translate(3.545 16.776) rotate(-134)" fill="#fff"/></g><g transform="translate(1650.532 887.652) rotate(-30)"><path d="M3.409,0c.726,0,.519,1.562,1.512,3.711.689,1.491,1.9,3.53,1.9,4.364A3.409,3.409,0,1,1,0,8.075c0-.86.8-2.265,1.631-4.041C2.495,2.181,2.683,0,3.409,0Z" transform="translate(0 0)" fill="#a5cfff"/><ellipse cx="0.897" cy="0.538" rx="0.897" ry="0.538" transform="translate(2.185 10.343) rotate(-134)" fill="#fff"/></g><g transform="translate(1534.19 908.535) rotate(19)"><path d="M3.5,0c.746,0,.533,1.6,1.553,3.812C5.764,5.344,7,7.439,7,8.3a3.5,3.5,0,0,1-7,0c0-.884.825-2.327,1.676-4.152C2.563,2.241,2.756,0,3.5,0Z" transform="translate(0 0)" fill="#a5cfff"/><ellipse cx="0.922" cy="0.553" rx="0.922" ry="0.553" transform="translate(2.245 10.626) rotate(-134)" fill="#fff"/></g><path d="M-9.895-30.792a41.912,41.912,0,0,0,4.266,4.9c5.7,5.4,27.018,62.948,78.5,82.1,31.621,11.761,53.659,7.076,72.429,2.39,11.79-2.944,22.291-5.887,33.067-4.754q3.1.326,5.776.672a127.874,127.874,0,0,1-67.868,19.368A128.3,128.3,0,0,1-9.895-30.792Z" transform="translate(1711.656 833.061) rotate(180)" fill="#c3dfff"/><path d="M9.342,129.694a130.2,130.2,0,0,1,.9-15.332c.786,11.2,2.6,29.174,6.468,37.143,1.747,3.6,6.761,17.528,11.144,27.554,9.909,22.672,30.016,55.774,75.1,67.927,35.761,6.671,45.706,6.094,75.783-2.983,9.09-2.644,20.63-3.926,30.576-4.537A130.394,130.394,0,0,1,139.8,259.4C67.748,259.4,9.342,201.326,9.342,129.694Z" transform="translate(1455.326 758.02)" fill="#98c0ed"/><circle cx="2.5" cy="2.5" r="2.5" transform="translate(1470 894)" fill="#98c0ed"/><circle cx="5" cy="5" r="5" transform="translate(1501 933)" fill="#e1ecf9"/><circle cx="2" cy="2" r="2" transform="translate(1513 940)" fill="#e1ecf9"/><circle cx="2.5" cy="2.5" r="2.5" transform="translate(1657 991)" fill="#98c0ed"/><circle cx="1.5" cy="1.5" r="1.5" transform="translate(1698 975.5)" fill="#98c0ed"/><circle cx="3" cy="3" r="3" transform="translate(1701 978.5)" fill="#98c0ed"/><circle cx="1" cy="1" r="1" transform="translate(1755 993)" fill="#c3dfff"/><path d="M3.5,1.5a2,2,0,1,0,2,2,2,2,0,0,0-2-2M3.5,0A3.5,3.5,0,1,1,0,3.5,3.5,3.5,0,0,1,3.5,0Z" transform="translate(1749 986)" fill="#c3dfff"/><circle cx="1.5" cy="1.5" r="1.5" transform="translate(1472 889)" fill="#98c0ed"/><circle cx="1.5" cy="1.5" r="1.5" transform="translate(1598 771)" fill="#c3dfff"/><circle cx="3" cy="3" r="3" transform="translate(1532 776)" fill="#c3dfff"/><circle cx="1.5" cy="1.5" r="1.5" transform="translate(1527 781)" fill="#c3dfff"/><circle cx="1.5" cy="1.5" r="1.5" transform="translate(1599 1004)" fill="#98c0ed"/><ellipse cx="3.437" cy="1.468" rx="3.437" ry="1.468" transform="translate(1566.589 763.794) rotate(-8)" fill="#fff"/><path d="M-10284.149-16225.88a1,1,0,0,1-.982-.818h0a37.99,37.99,0,0,0-3.537-10.108,1,1,0,0,1,.372-1.364,1,1,0,0,1,1.364.372,39.312,39.312,0,0,1,3.768,10.737,1,1,0,0,1-.8,1.165A.97.97,0,0,1-10284.149-16225.88Z" transform="translate(16058.71 13582.998) rotate(-16)" fill="#e6f2ff"/><path d="M-10282.436-16220.989a1,1,0,0,1-.982-.818c-.018-.1-1.639-8.679-5.251-15a1,1,0,0,1,.372-1.364,1,1,0,0,1,1.364.372c3.787,6.626,5.414,15.265,5.481,15.629a1,1,0,0,1-.8,1.165A.97.97,0,0,1-10282.436-16220.989Z" transform="translate(-15590.398 9542.783) rotate(96)" fill="#92b2d8"/><path d="M-10282.436-16220.989a1,1,0,0,1-.982-.818c-.018-.1-1.639-8.679-5.251-15a1,1,0,0,1,.372-1.364,1,1,0,0,1,1.364.372c3.787,6.626,5.414,15.265,5.481,15.629a1,1,0,0,1-.8,1.165A.97.97,0,0,1-10282.436-16220.989Z" transform="translate(-16925.564 6079.086) rotate(107)" fill="#e1ecf9"/><path d="M110.253,281.072l9.189-11.95c1.8-9.078,11.879-46.46,61.392-93.914,48.929-46.892,86.031-55.516,95.651-57.018l15.431-12.658A130.255,130.255,0,0,1,298,118.889l-15.82,12.975-2.228.17c-.333.03-37.534,3.8-89.305,53.415-51.8,49.65-57.433,87.16-57.482,87.534l-.257,1.868-1.153,1.536-8.475,11.022A131.785,131.785,0,0,1,110.253,281.072ZM65.845,240.866l.53-.689c4.333-17.278,19.8-59.579,73.32-110.865C192,79.181,233.894,65.182,251.953,61.3l1.073-.88A132.394,132.394,0,0,1,287.99,98.58l-14.871,12.2-8.13.615c.129,0-36.91,4.79-89.55,55.237-52.756,50.559-59.366,87.937-59.425,88.311l-1.05,6.431-4.046,5.654-7.613,9.9A132.553,132.553,0,0,1,65.845,240.866Z" transform="translate(1419.841 720.695)" fill="#fff" opacity="0.2"/><path d="M283.191,257.873,228.87,223.089c5.137.687,13.494,2.2,18.4,5.141,2.245,1.347,11.269,3.879,17.063,7.448,5,3.082,9.4,7.777,13.91,11.168a108.216,108.216,0,0,0,11.776,7.73s2.94,1.711,9.054,2.323a18.228,18.228,0,0,1-9.255,2.628A13.242,13.242,0,0,1,283.191,257.873Z" transform="translate(1464.668 756.889)" fill="#98c0ed"/><path d="M298.227,241.042c-3.056-5.254-2.731-5.515-4.987-8.064-2.59-2.827-20.974-11.155-30.242-18.149a49.617,49.617,0,0,1-9.946-10.738l45.891,22.735c5.211,3.048,8.022,10.844,6.1,17.932C301.841,244.4,299.217,242.784,298.227,241.042Z" transform="translate(1465.668 759.889)" fill="#c3dfff"/></g><g transform="translate(1449.861 433.807) rotate(16)"><path d="M45.068,0S30.937,4.363,21.509,8.98,7.36,18.473,7.36,18.473,1.027,24.2.146,29.473c-.881,5.254,2.466,8.426,3.982,9.941A13.213,13.213,0,0,0,13.734,42.8c4.726-.133,6.472-.762,10.111-4.277a15.757,15.757,0,0,0,4.93-9.918c.424-2.961.142-7.477,4.336-14.66S45.068,0,45.068,0Z" transform="translate(0)" fill="#cee5ff"/><ellipse cx="6.28" cy="3.768" rx="6.28" ry="3.768" transform="matrix(0.799, -0.602, 0.602, 0.799, 3.607, 25.841)" fill="#fff"/></g><g transform="matrix(-0.966, 0.259, -0.259, -0.966, 1755.244, 491.1)"><path d="M27.611,26.227a122.76,122.76,0,0,1-14.434-5.5,33.436,33.436,0,0,1-8.668-5.815S.629,11.4.089,8.172a6.711,6.711,0,0,1,2.44-6.093A8.1,8.1,0,0,1,8.414,0c2.895.083,3.964.468,6.194,2.623a9.652,9.652,0,0,1,3.021,6.077,18.8,18.8,0,0,0,2.656,8.98A41.183,41.183,0,0,0,27.611,26.227Z" transform="translate(0 0)" fill="#cee5ff"/><ellipse cx="3.848" cy="2.309" rx="3.848" ry="2.309" transform="matrix(0.799, 0.602, -0.602, 0.799, 4.988, 6.706)" fill="#fff"/></g><g transform="matrix(-0.966, 0.259, -0.259, -0.966, 1768.32, 535.676)"><path d="M27.611,26.227a122.76,122.76,0,0,1-14.434-5.5,33.436,33.436,0,0,1-8.668-5.815S.629,11.4.089,8.172a6.711,6.711,0,0,1,2.44-6.093A8.1,8.1,0,0,1,8.414,0c2.895.083,3.964.468,6.194,2.623a9.652,9.652,0,0,1,3.021,6.077,18.8,18.8,0,0,0,2.656,8.98A41.183,41.183,0,0,0,27.611,26.227Z" transform="translate(0 0)" fill="#cee5ff"/><ellipse cx="3.848" cy="2.309" rx="3.848" ry="2.309" transform="matrix(0.799, 0.602, -0.602, 0.799, 4.988, 6.706)" fill="#fff"/></g></g><g transform="translate(-374.953 180.426)"><path d="M9.569,0H187.384a9.569,9.569,0,0,1,9.569,9.569v30.3a9.569,9.569,0,0,1-9.569,9.569H9.569A9.569,9.569,0,0,1,0,39.869V9.569A9.569,9.569,0,0,1,9.569,0Z" transform="translate(1331 448)" fill="#fff"/><path d="M9.569,1A8.578,8.578,0,0,0,1,9.569v30.3a8.578,8.578,0,0,0,8.569,8.569H187.384a8.578,8.578,0,0,0,8.569-8.569V9.569A8.578,8.578,0,0,0,187.384,1H9.569m0-1H187.384a9.569,9.569,0,0,1,9.569,9.569v30.3a9.569,9.569,0,0,1-9.569,9.569H9.569A9.569,9.569,0,0,1,0,39.869V9.569A9.569,9.569,0,0,1,9.569,0Z" transform="translate(1331 448)" fill="#98c0ed"/><path d="M7,0h7a7,7,0,0,1,7,7v7a7,7,0,0,1-7,7H7a7,7,0,0,1-7-7V7A7,7,0,0,1,7,0Z" transform="translate(1501.976 471.719)" fill="#98c0ed"/><g transform="translate(1507.682 477.168)"><path d="M.98,0a.98.98,0,0,1,.98.98s-.3,2.64-.3,5.279.3,5.279.3,5.279a.98.98,0,1,1-1.961,0S.3,8.9.3,6.26,0,.98,0,.98A.98.98,0,0,1,.98,0Z" transform="translate(8.853 0) rotate(45)" fill="#fff"/><path d="M.98,0a.98.98,0,0,1,.98.98s-.3,2.64-.3,5.279.3,5.279.3,5.279a.98.98,0,1,1-1.961,0S.3,8.9.3,6.26,0,.98,0,.98A.98.98,0,0,1,.98,0Z" transform="translate(0 1.387) rotate(-45)" fill="#fff"/></g><circle cx="13" cy="13" r="13" transform="translate(1344.976 459.719)" fill="#e7eaf5"/><g transform="translate(1376.451 464.745)"><rect width="34" height="8" rx="4" transform="translate(-0.474 -0.025)" fill="#e7eaf5"/><rect width="75" height="3" rx="1.5" transform="translate(-0.474 12.975)" fill="#e7eaf5"/><rect width="20" height="8" rx="4" transform="translate(38.526 -0.025)" fill="#e7eaf5"/></g></g></g></svg>