<svg viewBox="0 0 15 15" fill="none" xmlns="http://www.w3.org/2000/svg">
<path d="M12.8878 5.28187C12.6107 4.06945 11.9229 2.99015 10.9409 2.22691C9.95899 1.46367 8.74334 1.06344 7.50003 1.09406H7.49346C6.25117 1.06316 5.03636 1.46249 4.0547 2.22445C3.07304 2.98641 2.38483 4.06418 2.10659 5.27531C1.37534 8.50031 3.34971 11.2312 5.13753 12.9506C5.76983 13.5637 6.61599 13.9066 7.49675 13.9066C8.3775 13.9066 9.22366 13.5637 9.85596 12.9506C11.6438 11.2312 13.6191 8.50687 12.8878 5.28187ZM7.50003 8.41312C7.11064 8.41312 6.73001 8.29766 6.40625 8.08133C6.08249 7.865 5.83015 7.55752 5.68114 7.19778C5.53213 6.83804 5.49314 6.44219 5.56911 6.06029C5.64507 5.67839 5.83258 5.32759 6.10791 5.05226C6.38324 4.77692 6.73404 4.58942 7.11594 4.51345C7.49784 4.43749 7.89369 4.47647 8.25343 4.62548C8.61318 4.77449 8.92065 5.02683 9.13698 5.35059C9.35331 5.67435 9.46878 6.05499 9.46878 6.44437C9.46878 6.96652 9.26136 7.46728 8.89214 7.83649C8.52293 8.2057 8.02217 8.41312 7.50003 8.41312Z" fill="#17B9EC"/>
</svg>
