<svg  viewBox="0 0 15 15" fill="none" xmlns="http://www.w3.org/2000/svg">
<rect width="15" height="15" fill="white"/>
<path d="M7.49996 1.00004C3.36619 1.00004 0 4.45134 0 8.68963C0 10.2849 0.473937 11.7698 1.2891 13L2.39509 12.1064C1.8919 11.3154 1.56097 10.3977 1.45031 9.41061H3.28136V7.96873H1.45031C1.5829 6.78096 2.03821 5.69515 2.72468 4.80725L4.02097 6.13632L5.0171 5.115L4.51914 4.61179L3.71348 3.78576C4.57866 3.08378 5.63999 2.62267 6.79684 2.48685V4.36419H8.20316V2.48685C9.36001 2.62263 10.4213 3.08374 11.2867 3.78606L10.481 4.61209L9.98306 5.1153L10.9792 6.13662L12.2755 4.80755C12.962 5.69541 13.4173 6.78126 13.5499 7.96903H11.7188V9.41091H13.5499C13.4392 10.398 13.1083 11.3158 12.6051 12.1067L13.7109 13C14.5261 11.7698 15 10.2847 15 8.68958C15 4.4513 11.6337 1.00004 7.49996 1.00004ZM7.49996 5.08509L6.65768 10.2588C6.45397 10.4751 6.32809 10.768 6.32809 11.0924C6.32809 11.756 6.85271 12.2939 7.49996 12.2939C8.14721 12.2939 8.67183 11.756 8.67183 11.0924C8.67183 10.7681 8.54594 10.4751 8.34224 10.2588L7.49996 5.08509Z" fill="#17B9EC"/>
</svg>
