<svg viewBox="0 0 15 15" fill="none" xmlns="http://www.w3.org/2000/svg">
<path fill-rule="evenodd" clip-rule="evenodd" d="M6.20724 3.59607C6.32548 3.63802 6.44059 3.68587 6.55271 3.7393C6.69459 3.807 6.84629 3.80265 6.98384 3.7268L7.99834 3.16874C8.09182 3.11732 8.20392 3.13316 8.27911 3.20834L8.79177 3.721C8.86695 3.79618 8.8829 3.90828 8.8317 4.00175L8.27329 5.01624C8.19744 5.15378 8.19298 5.30582 8.2608 5.44737C8.31434 5.55948 8.36208 5.67459 8.40402 5.79284C8.45656 5.94086 8.56688 6.04482 8.71757 6.08844L9.82967 6.41115C9.93196 6.44093 10 6.53106 10 6.6377V7.36241C10 7.46904 9.93196 7.5595 9.82967 7.58929L8.71757 7.91199C8.56687 7.95572 8.45644 8.05968 8.40402 8.2076C8.36242 8.32584 8.31423 8.44095 8.2608 8.55306C8.19342 8.69461 8.19777 8.84664 8.27329 8.98419L8.83136 9.99868C8.88278 10.0922 8.86694 10.2039 8.79176 10.2794L8.2791 10.7918C8.20391 10.8673 8.09181 10.8832 7.99833 10.8317L6.98383 10.2736C6.84596 10.1978 6.69425 10.1933 6.5527 10.2611C6.44059 10.3147 6.32548 10.3624 6.20723 10.4044C6.05921 10.4569 5.95525 10.5672 5.91162 10.7179L5.58891 11.8297C5.55946 11.9323 5.469 12 5.36236 12H4.63764C4.531 12 4.44054 11.9323 4.41076 11.8297L4.08805 10.7179C4.04432 10.5672 3.94036 10.4568 3.79244 10.4044C3.67465 10.3624 3.55908 10.3146 3.44697 10.2611C3.30542 10.1934 3.1537 10.1978 3.01584 10.2736L2.00133 10.8317C1.90786 10.8831 1.79609 10.8673 1.72057 10.7918L1.20825 10.2794C1.13274 10.2039 1.11679 10.0922 1.16832 9.99868L1.72673 8.98374C1.80225 8.8462 1.8066 8.6945 1.73889 8.55295C1.68535 8.44085 1.6376 8.3254 1.59566 8.20749C1.54313 8.05946 1.43281 7.95551 1.28244 7.91188L0.17033 7.58917C0.0677058 7.55939 0 7.46893 0 7.36229V6.63758C0 6.53095 0.0677086 6.44082 0.17033 6.41104L1.28212 6.08833C1.43282 6.04461 1.54325 5.94064 1.59566 5.79272C1.63761 5.67449 1.68546 5.55937 1.73889 5.44726C1.8066 5.30537 1.80225 5.15368 1.7264 5.01613L1.16833 4.00164C1.11691 3.90817 1.13275 3.79606 1.20826 3.72088L1.72058 3.20823C1.7961 3.13305 1.90787 3.1171 2.00134 3.16863L3.0163 3.72669C3.15384 3.80254 3.30554 3.807 3.44744 3.73918C3.55921 3.68564 3.67465 3.6379 3.79256 3.59596C3.94058 3.54342 4.04454 3.4331 4.08817 3.28242L4.41088 2.17033C4.44066 2.06804 4.53113 2 4.63776 2H5.36248C5.46912 2 5.55958 2.06804 5.58903 2.17033L5.91174 3.28242C5.95547 3.43312 6.05943 3.54355 6.20735 3.59596L6.20724 3.59607ZM4.99998 4.89366C6.16318 4.89366 7.10632 5.83676 7.10632 6.99997C7.10632 8.16349 6.16321 9.10659 4.99998 9.10659C3.83645 9.10659 2.89334 8.16349 2.89334 6.99997C2.89334 5.83679 3.83645 4.89366 4.99998 4.89366Z" fill="#17B9EC"/>
<path fill-rule="evenodd" clip-rule="evenodd" d="M11.7862 7.76989C11.8636 7.76249 11.941 7.75943 12.018 7.7602C12.1152 7.76096 12.1996 7.71875 12.2569 7.64019L12.6808 7.06019C12.7199 7.00675 12.7869 6.9866 12.8492 7.00905L13.2716 7.16272C13.334 7.18555 13.3719 7.24408 13.3677 7.31027L13.3197 8.02683C13.3135 8.12401 13.3507 8.21034 13.4258 8.27232C13.4855 8.32155 13.5424 8.37332 13.5969 8.42918C13.665 8.49843 13.7546 8.52789 13.8505 8.51322L14.5601 8.40291C14.6256 8.39284 14.6875 8.42574 14.7153 8.4858L14.9051 8.89314C14.9334 8.9532 14.9186 9.02169 14.8691 9.06543L14.3287 9.53816C14.2555 9.60205 14.2207 9.68953 14.23 9.78632C14.2374 9.86373 14.2404 9.94114 14.24 10.0182C14.2389 10.1153 14.2815 10.1998 14.36 10.257L14.9397 10.6809C14.9931 10.7201 15.0136 10.787 14.9908 10.8494L14.8371 11.2718C14.8147 11.3337 14.7558 11.372 14.6896 11.3678L13.973 11.3198C13.8758 11.3136 13.7895 11.3508 13.7275 11.4259C13.6787 11.4856 13.6265 11.5425 13.5712 11.5971C13.5015 11.6652 13.4721 11.7547 13.4871 11.8506L13.5971 12.5603C13.6071 12.6257 13.5742 12.6877 13.5142 12.7155L13.1068 12.9053C13.0468 12.9336 12.9783 12.9188 12.9345 12.8693L12.4618 12.3288C12.3979 12.2556 12.3104 12.2208 12.2137 12.2301C12.1362 12.2375 12.0588 12.2406 11.9818 12.2402C11.8846 12.239 11.8002 12.2812 11.743 12.3598L11.3191 12.9398C11.2799 12.9932 11.213 13.0134 11.1506 12.991L10.7282 12.8373C10.6662 12.8148 10.628 12.7559 10.6322 12.6897L10.6801 11.9732C10.6868 11.876 10.6492 11.7897 10.574 11.7277C10.5149 11.6785 10.4575 11.6267 10.4029 11.5713C10.3348 11.5017 10.2453 11.4722 10.1494 11.4873L9.43971 11.5972C9.37429 11.6073 9.31269 11.5744 9.28451 11.5143L9.09475 11.107C9.06682 11.0469 9.08123 10.9784 9.13071 10.9347L9.67118 10.462C9.74476 10.3981 9.77919 10.3106 9.76988 10.2138C9.76249 10.1364 9.75943 10.059 9.76019 9.98196C9.76096 9.88478 9.71875 9.80036 9.64019 9.7431L9.06019 9.31921C9.00675 9.28006 8.9866 9.21311 9.00905 9.15075L9.16272 8.72836C9.18554 8.66638 9.24408 8.62812 9.31026 8.63233L10.0268 8.68028C10.124 8.68653 10.2103 8.6493 10.2723 8.57418C10.3215 8.5145 10.3737 8.45762 10.4292 8.40304C10.4984 8.33494 10.5279 8.24542 10.5132 8.14952L10.4029 7.43984C10.3928 7.37442 10.4257 7.31244 10.4858 7.28464L10.8931 7.09488C10.9532 7.06657 11.0217 7.08136 11.0654 7.13084L11.5381 7.67131C11.602 7.74489 11.6895 7.77933 11.7863 7.77002L11.7862 7.76989ZM11.4479 8.81599C12.1018 8.51095 12.8792 8.79393 13.1839 9.44788C13.4889 10.1018 13.206 10.8792 12.552 11.1839C11.8981 11.489 11.1207 11.206 10.816 10.552C10.5109 9.89808 10.7939 9.12066 11.4479 8.81599Z" fill="#17B9EC"/>
</svg>
