<svg width="60" height="60" viewBox="0 0 60 60" fill="none" xmlns="http://www.w3.org/2000/svg">
<g clip-path="url(#clip0_2301_321164)">
<path d="M31.3805 60.0007C47.1862 60.0007 59.9993 47.1928 59.9993 31.3934C59.9993 15.594 47.1862 2.78613 31.3805 2.78613C15.5748 2.78613 2.76172 15.594 2.76172 31.3934C2.76172 47.1928 15.5748 60.0007 31.3805 60.0007Z" fill="#E6451F" fill-opacity="0.1"/>
<path d="M54.1316 41.9758C56.1124 37.9376 57.1711 33.5101 57.2314 29.0131C57.2307 25.342 56.503 21.7071 55.0897 18.3187C53.6764 14.9303 51.6064 11.8555 48.998 9.27111C46.3967 6.59795 43.2873 4.46955 39.8536 3.0113C36.4199 1.55306 32.7307 0.794299 29 0.77832" stroke="#E6451F" stroke-width="1.5" stroke-linecap="round"/>
<path d="M28.9922 57.5772C35.2392 57.4945 41.2899 55.3833 46.2317 51.5625" stroke="#E6451F" stroke-width="1.5" stroke-linecap="round"/>
<path d="M49.2539 48.8781C50.5892 47.518 51.7731 46.0166 52.7832 44.4004" stroke="#E6451F" stroke-width="1.5" stroke-linecap="round"/>
<path d="M1.69727 21.8525C2.9545 17.0796 5.47416 12.7332 8.99219 9.27014C12.2442 5.96422 16.2499 3.496 20.6656 2.07715" stroke="#E6451F" stroke-width="1.5" stroke-linecap="round"/>
<path d="M28.9926 57.5769C25.2092 57.5283 21.4725 56.7361 17.9958 55.2439C14.519 53.7517 11.3706 51.5888 8.7298 48.8802C1.66448 41.7083 0.73122 32.279 0.754316 29.0107" stroke="#E6451F" stroke-width="1.5" stroke-linecap="round"/>
<path d="M38.963 21.8277C37.1173 21.644 35.2726 21.5065 33.4149 21.4041V21.392L33.1629 19.9025C32.9912 18.8485 32.7391 17.2676 30.057 17.2676H27.0535C24.3834 17.2676 24.1314 18.7803 23.9476 19.8914L23.7066 21.3579C22.6402 21.4262 21.5748 21.4954 20.5084 21.5988L18.1707 21.8277C18.0566 21.8357 17.9453 21.8664 17.8433 21.918C17.7413 21.9696 17.6506 22.0411 17.5766 22.1283C17.5027 22.2154 17.4469 22.3165 17.4126 22.4255C17.3783 22.5345 17.3661 22.6493 17.3768 22.7631C17.3875 22.8769 17.4209 22.9874 17.475 23.0881C17.529 23.1888 17.6027 23.2777 17.6916 23.3495C17.7806 23.4214 17.883 23.4747 17.9928 23.5064C18.1027 23.5381 18.2178 23.5475 18.3313 23.5341L20.67 23.3052C26.7075 22.7843 32.7818 22.865 38.8033 23.5461H38.8947C39.1088 23.545 39.315 23.4649 39.4736 23.3211C39.6323 23.1774 39.7322 22.9801 39.7542 22.7672C39.7713 22.5383 39.6981 22.3118 39.5502 22.1362C39.4023 21.9606 39.1915 21.8499 38.963 21.8277Z" fill="#EA4821"/>
<path d="M36.8571 25.1606C36.7217 25.0193 36.5591 24.9068 36.3791 24.8301C36.1991 24.7533 36.0054 24.7138 35.8097 24.7139H21.3216C21.1264 24.7132 20.9331 24.7525 20.7537 24.8293C20.5742 24.9061 20.4124 25.0189 20.2782 25.1606C20.1444 25.3049 20.0408 25.4745 19.9736 25.6595C19.9063 25.8445 19.8767 26.041 19.8866 26.2376L20.5996 37.9927C20.7261 39.7342 20.8858 41.9074 24.8864 41.9074H32.2449C36.2455 41.9074 36.4052 39.7422 36.5317 37.9927L37.2427 26.2486C37.2543 26.0507 37.2261 25.8525 37.1599 25.6656C37.0937 25.4788 36.9907 25.307 36.8571 25.1606ZM30.4685 36.1708H26.6527C26.4247 36.1708 26.2061 36.0803 26.0449 35.9192C25.8837 35.758 25.7931 35.5395 25.7931 35.3116C25.7931 35.0837 25.8837 34.8652 26.0449 34.7041C26.2061 34.5429 26.4247 34.4524 26.6527 34.4524H30.4685C30.6965 34.4524 30.9151 34.5429 31.0763 34.7041C31.2375 34.8652 31.3281 35.0837 31.3281 35.3116C31.3281 35.5395 31.2375 35.758 31.0763 35.9192C30.9151 36.0803 30.6965 36.1708 30.4685 36.1708ZM31.4345 31.5887H25.6997C25.4718 31.5887 25.2531 31.4981 25.0919 31.337C24.9307 31.1759 24.8402 30.9573 24.8402 30.7294C24.8402 30.5016 24.9307 30.283 25.0919 30.1219C25.2531 29.9607 25.4718 29.8702 25.6997 29.8702H31.4345C31.6625 29.8702 31.8812 29.9607 32.0424 30.1219C32.2036 30.283 32.2941 30.5016 32.2941 30.7294C32.2941 30.9573 32.2036 31.1759 32.0424 31.337C31.8812 31.4981 31.6625 31.5887 31.4345 31.5887Z" fill="#EA4821"/>
</g>
<defs>
<clipPath id="clip0_2301_321164">
<rect width="60" height="60" fill="white"/>
</clipPath>
</defs>
</svg>
